<svg width="723.790625px" height="121.89880676269532px" xmlns="http://www.w3.org/2000/svg" viewBox="-111.89531249999999 14.050596618652342 723.790625 121.89880676269532" style="background: rgb(255, 255, 255);" preserveAspectRatio="xMidYMid"><defs><linearGradient id="editing-shadow-gradient1" x1="0" x2="0" y1="0" y2="1"><stop offset="0" stop-color="#000000" stop-opacity="0"></stop><stop offset="0.2" stop-color="#000000" stop-opacity="0"></stop><stop offset="1" stop-color="#000000" stop-opacity="1"></stop></linearGradient><linearGradient id="editing-shadow-gradient2" x1="-0.2547095802227721" x2="1.2547095802227721" y1="-0.15605902899050716" y2="1.1560590289905073"><stop offset="0" stop-color="#ffffff"></stop><stop offset="1" stop-color="#004274"></stop></linearGradient><filter id="editing-shadow" x="-100%" y="-100%" width="300%" height="300%"><feGaussianBlur stdDeviation="2"></feGaussianBlur><feComposite operator="in" in2="SourceGraphic"></feComposite><feGaussianBlur stdDeviation="1"></feGaussianBlur></filter></defs><g transform="translate(250,75)"><g transform="translate(-20.4, -1.2)"><g transform="skewX(45)"><g filter="url(#editing-shadow)"><g transform="translate(-220.91507506370544, 24)"><path d="M42.62-26.56L42.62-26.56L42.62-26.56Q42.62 0.70 13.06 0.70L13.06 0.70L13.06 0.70Q8.32 0.70 0.51-0.45L0.51-0.45L7.68-38.27L7.68-38.27Q8.19-40.83 8.51-42.30L8.51-42.30L8.51-42.30Q18.24-43.01 22.56-43.01L22.56-43.01L22.56-43.01Q26.88-43.01 30.85-42.11L30.85-42.11L30.85-42.11Q34.82-41.22 37.44-39.23L37.44-39.23L37.44-39.23Q42.62-35.33 42.62-26.56ZM29.44-28.93L29.44-28.93L29.44-28.93Q29.44-38.46 22.59-38.46L22.59-38.46L21.95-38.46L21.95-38.46Q21.63-38.46 21.31-38.40L21.31-38.40L14.72-4.03L14.72-4.03Q14.98-3.90 15.23-3.90L15.23-3.90L15.74-3.90L15.74-3.90Q18.11-3.90 20.58-5.38L20.58-5.38L20.58-5.38Q23.04-6.85 24.96-9.86L24.96-9.86L24.96-9.86Q29.44-16.83 29.44-28.93ZM61.25-3.52L61.25-3.52L61.25-3.52Q59.26 1.28 52.93 1.28L52.93 1.28L52.93 1.28Q49.66 1.28 47.62-0.96L47.62-0.96L47.62-0.96Q45.89-2.94 45.89-4.93L45.89-4.93L45.89-4.93Q45.89-10.11 48.26-20.22L48.26-20.22L50.62-32.64L63.62-33.92L59.71-13.70L59.71-13.70Q58.62-8.96 58.62-7.30L58.62-7.30L58.62-7.30Q58.62-3.65 61.25-3.52ZM51.78-41.54L51.78-41.54L51.78-41.54Q51.78-44.03 53.86-45.38L53.86-45.38L53.86-45.38Q55.94-46.72 58.94-46.72L58.94-46.72L58.94-46.72Q61.95-46.72 63.78-45.38L63.78-45.38L63.78-45.38Q65.60-44.03 65.60-41.54L65.60-41.54L65.60-41.54Q65.60-39.04 63.58-37.76L63.58-37.76L63.58-37.76Q61.57-36.48 58.56-36.48L58.56-36.48L58.56-36.48Q55.55-36.48 53.66-37.76L53.66-37.76L53.66-37.76Q51.78-39.04 51.78-41.54ZM93.76 1.28L93.76 1.28L93.76 1.28Q86.02 1.28 86.02-4.74L86.02-4.74L86.02-4.74Q86.08-6.40 86.59-9.22L86.59-9.22L87.74-15.10L87.74-15.10Q89.47-23.42 89.47-25.28L89.47-25.28L89.47-25.28Q89.47-28.99 87.30-28.99L87.30-28.99L87.30-28.99Q83.65-28.99 81.73-19.46L81.73-19.46L77.95 0L65.09 1.28L71.74-32.70L82.24-33.92L81.22-27.65L81.22-27.65Q84.22-33.92 93.44-33.92L93.44-33.92L93.44-33.92Q97.92-33.92 99.81-32.03L99.81-32.03L99.81-32.03Q101.70-30.14 101.70-25.92L101.70-25.92L101.70-25.92Q101.70-21.95 99.65-12.67L99.65-12.67L99.65-12.67Q98.69-8.51 98.69-6.94L98.69-6.94L98.69-6.94Q98.69-5.38 99.55-4.48L99.55-4.48L99.55-4.48Q100.42-3.58 101.70-3.46L101.70-3.46L101.70-3.46Q101.06-1.28 98.85 0L98.85 0L98.85 0Q96.64 1.28 93.76 1.28ZM132.74-10.82L132.74-10.82L132.74-10.82Q134.34-9.73 134.34-7.33L134.34-7.33L134.34-7.33Q134.34-4.93 133.12-3.39L133.12-3.39L133.12-3.39Q131.90-1.86 129.92-0.83L129.92-0.83L129.92-0.83Q125.82 1.28 121.41 1.28L121.41 1.28L121.41 1.28Q116.99 1.28 114.40 0.32L114.40 0.32L114.40 0.32Q111.81-0.64 110.08-2.43L110.08-2.43L110.08-2.43Q106.69-5.82 106.69-12.03L106.69-12.03L106.69-12.03Q106.69-21.70 111.94-27.58L111.94-27.58L111.94-27.58Q117.57-33.92 127.36-33.92L127.36-33.92L127.36-33.92Q133.44-33.92 136.45-31.36L136.45-31.36L136.45-31.36Q138.69-29.44 138.69-26.30L138.69-26.30L138.69-26.30Q138.69-15.04 119.23-15.04L119.23-15.04L119.23-15.04Q118.98-13.38 118.98-11.97L118.98-11.97L118.98-11.97Q118.98-9.02 120.29-7.90L120.29-7.90L120.29-7.90Q121.60-6.78 124.03-6.78L124.03-6.78L124.03-6.78Q126.46-6.78 129.06-7.90L129.06-7.90L129.06-7.90Q131.65-9.02 132.74-10.82ZM119.68-17.79L119.68-17.79L119.68-17.79Q124.22-17.79 126.85-20.61L126.85-20.61L126.85-20.61Q129.47-23.30 129.47-27.58L129.47-27.58L129.47-27.58Q129.47-29.06 128.93-29.86L128.93-29.86L128.93-29.86Q128.38-30.66 127.30-30.66L127.30-30.66L127.30-30.66Q126.21-30.66 125.28-30.24L125.28-30.24L125.28-30.24Q124.35-29.82 123.39-28.42L123.39-28.42L123.39-28.42Q121.02-25.22 119.68-17.79ZM160-22.46L160-22.46L160-22.46Q160.90-24.83 160.90-26.88L160.90-26.88L160.90-26.88Q160.90-30.66 157.82-30.66L157.82-30.66L157.82-30.66Q156.22-30.66 154.91-29.22L154.91-29.22L154.91-29.22Q153.60-27.78 153.60-25.98L153.60-25.98L153.60-25.98Q153.60-24.70 154.62-23.68L154.62-23.68L154.62-23.68Q156.10-22.27 159.87-19.97L159.87-19.97L159.87-19.97Q163.65-17.66 165.09-15.78L165.09-15.78L165.09-15.78Q166.53-13.89 166.53-11.30L166.53-11.30L166.53-11.30Q166.53-8.70 165.28-6.34L165.28-6.34L165.28-6.34Q164.03-3.97 161.79-2.30L161.79-2.30L161.79-2.30Q156.99 1.28 149.31 1.28L149.31 1.28L149.31 1.28Q145.15 1.28 141.95-0.90L141.95-0.90L141.95-0.90Q138.75-3.01 138.75-5.50L138.75-5.50L138.75-5.50Q138.75-8 140.58-9.47L140.58-9.47L140.58-9.47Q142.40-10.94 145.09-10.94L145.09-10.94L145.09-10.94Q147.78-10.94 149.44-9.92L149.44-9.92L149.44-9.92Q148.61-7.81 148.61-6.40L148.61-6.40L148.61-6.40Q148.61-2.18 152.19-2.18L152.19-2.18L152.19-2.18Q153.73-2.18 154.75-3.14L154.75-3.14L154.75-3.14Q155.78-4.10 155.78-5.76L155.78-5.76L155.78-5.76Q155.78-9.02 150.27-12.48L150.27-12.48L150.27-12.48Q145.79-15.42 144.77-16.58L144.77-16.58L144.77-16.58Q143.04-18.62 143.04-21.18L143.04-21.18L143.04-21.18Q143.04-23.74 144.26-26.18L144.26-26.18L144.26-26.18Q145.47-28.61 147.71-30.34L147.71-30.34L147.71-30.34Q152.38-33.92 160.51-33.92L160.51-33.92L160.51-33.92Q164.67-33.92 167.14-32.26L167.14-32.26L167.14-32.26Q169.60-30.59 169.60-27.78L169.60-27.78L169.60-27.78Q169.60-24.96 167.90-23.36L167.90-23.36L167.90-23.36Q166.21-21.76 163.14-21.76L163.14-21.76L163.14-21.76Q161.02-21.76 160-22.46ZM204.16-7.10L204.16-7.10L204.16-7.10Q204.16-4.29 207.04-3.46L207.04-3.46L207.04-3.46Q206.34-1.09 203.58 0.19L203.58 0.19L203.58 0.19Q201.28 1.28 198.75 1.28L198.75 1.28L198.75 1.28Q196.22 1.28 194.91 0.61L194.91 0.61L194.91 0.61Q193.60-0.06 192.90-1.15L192.90-1.15L192.90-1.15Q191.74-2.82 191.74-5.95L191.74-5.95L191.74-5.95Q191.74-7.81 192.77-12.93L192.77-12.93L193.66-17.79L193.66-17.79Q194.75-23.36 194.75-25.41L194.75-25.41L194.75-25.41Q194.75-28.99 192.77-28.99L192.77-28.99L192.77-28.99Q190.27-28.99 188.67-25.34L188.67-25.34L188.67-25.34Q188.03-23.94 187.58-21.82L187.58-21.82L183.23 0L170.37 1.28L179.39-44.80L192.26-46.08L191.74-43.52L191.74-43.52Q189.95-33.66 188.42-30.34L188.42-30.34L188.42-30.34Q192-33.92 198.59-33.92L198.59-33.92L198.59-33.92Q205.57-33.92 206.85-29.31L206.85-29.31L206.85-29.31Q207.30-27.84 207.30-26.56L207.30-26.56L207.30-26.56Q207.30-25.28 207.20-24.29L207.20-24.29L207.20-24.29Q207.10-23.30 206.78-21.50L206.78-21.50L205.95-16.90L204.48-9.66L204.48-9.66Q204.16-8.19 204.16-7.10ZM238.46 0L224.83 0L232.13-38.91L232.83-42.24L246.53-42.24L238.46 0ZM264.45-3.78L264.45-3.78L264.45-3.78Q262.72 1.28 256.06 1.28L256.06 1.28L256.06 1.28Q251.14 1.28 247.74-4.61L247.74-4.61L247.74-4.61Q244.29-10.50 243.65-20.10L243.65-20.10L243.65-20.10Q250.69-32.96 255.55-38.27L255.55-38.27L255.55-38.27Q260.22-43.33 265.09-43.33L265.09-43.33L265.09-43.33Q267.71-43.33 269.60-41.92L269.60-41.92L269.60-41.92Q271.49-40.51 271.94-38.27L271.94-38.27L271.94-38.27Q269.76-37.38 268.74-36.67L268.74-36.67L268.74-36.67Q266.18-34.75 262.72-30.46L262.72-30.46L256.90-23.49L256.90-23.49Q255.49-21.82 254.91-21.06L254.91-21.06L254.91-21.06Q255.87-15.68 258.75-10.37L258.75-10.37L258.75-10.37Q261.50-5.31 264.45-3.78ZM290.43-2.69L290.43-2.69L290.43-2.69Q287.36 1.28 279.74 1.28L279.74 1.28L279.74 1.28Q275.78 1.28 272.90-1.12L272.90-1.12L272.90-1.12Q270.02-3.52 270.02-6.98L270.02-6.98L270.02-6.98Q270.02-8.90 270.21-9.86L270.21-9.86L274.50-32.64L287.49-33.92L282.82-9.22L282.82-9.22Q282.56-7.81 282.56-6.98L282.56-6.98L282.56-6.98Q282.56-3.26 284.80-3.26L284.80-3.26L284.80-3.26Q287.30-3.26 289.09-6.66L289.09-6.66L289.09-6.66Q289.66-7.74 289.92-9.15L289.92-9.15L294.46-32.64L307.07-33.92L302.34-8.96L302.34-8.96Q302.14-8 302.14-6.98L302.14-6.98L302.14-6.98Q302.14-5.95 302.72-4.83L302.72-4.83L302.72-4.83Q303.30-3.71 305.15-3.46L305.15-3.46L305.15-3.46Q304.77-1.92 303.42-0.90L303.42-0.90L303.42-0.90Q300.61 1.28 297.57 1.28L297.57 1.28L297.57 1.28Q294.53 1.28 292.74 0.19L292.74 0.19L292.74 0.19Q290.94-0.90 290.43-2.69ZM356.61 1.28L356.61 1.28L356.61 1.28Q348.86 1.28 348.86-4.74L348.86-4.74L348.86-4.74Q348.86-7.36 349.98-12.45L349.98-12.45L349.98-12.45Q351.10-17.54 351.49-19.58L351.49-19.58L351.49-19.58Q352.38-24.26 352.38-25.73L352.38-25.73L352.38-25.73Q352.38-28.99 349.95-28.99L349.95-28.99L349.95-28.99Q348.35-28.99 346.82-26.78L346.82-26.78L346.82-26.78Q345.28-24.58 344.58-20.16L344.58-20.16L340.61 0L328.13 1.28L331.58-16.13L331.58-16.13Q332.16-19.01 332.67-22.27L332.67-22.27L332.67-22.27Q333.18-25.54 333.18-26.05L333.18-26.05L333.18-26.05Q333.18-28.99 331.01-28.99L331.01-28.99L331.01-28.99Q329.54-28.99 327.94-26.82L327.94-26.82L327.94-26.82Q326.34-24.64 325.44-20.16L325.44-20.16L321.54 0L308.93 1.28L315.65-32.64L326.08-33.92L324.99-27.46L324.99-27.46Q326.66-30.91 329.73-32.42L329.73-32.42L329.73-32.42Q332.80-33.92 337.60-33.92L337.60-33.92L337.60-33.92Q340.35-33.92 342.14-32.58L342.14-32.58L342.14-32.58Q343.94-31.23 344.51-29.06L344.51-29.06L344.51-29.06Q345.60-31.30 348.38-32.61L348.38-32.61L348.38-32.61Q351.17-33.92 354.59-33.92L354.59-33.92L354.59-33.92Q358.02-33.92 359.71-33.18L359.71-33.18L359.71-33.18Q361.41-32.45 362.43-31.23L362.43-31.23L362.43-31.23Q364.16-28.99 364.16-24.90L364.16-24.90L364.16-24.90Q364.16-20.86 362.43-12.48L362.43-12.48L362.43-12.48Q361.54-8.38 361.54-6.88L361.54-6.88L361.54-6.88Q361.54-5.38 362.40-4.48L362.40-4.48L362.40-4.48Q363.26-3.58 364.54-3.46L364.54-3.46L364.54-3.46Q363.90-1.28 361.70 0L361.70 0L361.70 0Q359.49 1.28 356.61 1.28ZM372.26-1.92L372.26-1.92L372.26-1.92Q370.75-3.58 370.08-6.21L370.08-6.21L370.08-6.21Q369.41-8.83 369.41-13.12L369.41-13.12L369.41-13.12Q369.41-17.41 370.88-21.31L370.88-21.31L370.88-21.31Q372.35-25.22 375.04-28.03L375.04-28.03L375.04-28.03Q380.54-33.92 389.63-33.92L389.63-33.92L389.63-33.92Q392.90-33.92 395.26-32.83L395.26-32.83L406.21-33.92L401.47-8.96L401.47-8.96Q401.28-8.19 401.28-6.78L401.28-6.78L401.28-6.78Q401.28-5.38 402.14-4.48L402.14-4.48L402.14-4.48Q403.01-3.58 404.29-3.46L404.29-3.46L404.29-3.46Q403.65-1.28 401.31 0L401.31 0L401.31 0Q398.98 1.28 396.35 1.28L396.35 1.28L396.35 1.28Q393.73 1.28 391.97 0.29L391.97 0.29L391.97 0.29Q390.21-0.70 389.70-2.37L389.70-2.37L389.70-2.37Q388.67-0.77 386.50 0.26L386.50 0.26L386.50 0.26Q384.32 1.28 381.41 1.28L381.41 1.28L381.41 1.28Q378.50 1.28 376.13 0.51L376.13 0.51L376.13 0.51Q373.76-0.26 372.26-1.92ZM385.76-27.90L385.76-27.90L385.76-27.90Q385.02-26.75 384.38-24.80L384.38-24.80L384.38-24.80Q383.74-22.85 382.69-17.63L382.69-17.63L382.69-17.63Q381.63-12.42 381.63-8.70L381.63-8.70L381.63-8.70Q381.63-4.99 382.21-3.90L382.21-3.90L382.21-3.90Q382.78-2.82 383.81-2.82L383.81-2.82L383.81-2.82Q385.86-2.82 387.36-4.77L387.36-4.77L387.36-4.77Q388.86-6.72 389.44-10.18L389.44-10.18L392.83-28.93L392.83-28.93Q391.49-30.08 389.92-30.08L389.92-30.08L389.92-30.08Q388.35-30.08 387.42-29.57L387.42-29.57L387.42-29.57Q386.50-29.06 385.76-27.90ZM429.70-17.98L429.70-17.98L429.70-17.98Q432-22.08 432-26.24L432-26.24L432-26.24Q432-28.99 430.02-28.99L430.02-28.99L430.02-28.99Q428.48-28.99 426.88-26.37L426.88-26.37L426.88-26.37Q425.22-23.74 424.70-20.35L424.70-20.35L421.38 0L408.13 1.28L414.66-32.64L425.22-33.92L424.06-27.46L424.06-27.46Q427.20-33.92 434.24-33.92L434.24-33.92L434.24-33.92Q437.95-33.92 439.97-32L439.97-32L439.97-32Q441.98-30.08 441.98-26.14L441.98-26.14L441.98-26.14Q441.98-22.21 439.39-19.71L439.39-19.71L439.39-19.71Q436.80-17.22 432.38-17.22L432.38-17.22L432.38-17.22Q430.46-17.22 429.70-17.98Z" fill="url(#editing-shadow-gradient1)"></path></g></g></g></g><g><g transform="translate(-220.71999144554138, 24)"><path d="M42.62-26.56L42.62-26.56L42.62-26.56Q42.62 0.70 13.06 0.70L13.06 0.70L13.06 0.70Q8.32 0.70 0.51-0.45L0.51-0.45L7.68-38.27L7.68-38.27Q8.19-40.83 8.51-42.30L8.51-42.30L8.51-42.30Q18.24-43.01 22.56-43.01L22.56-43.01L22.56-43.01Q26.88-43.01 30.85-42.11L30.85-42.11L30.85-42.11Q34.82-41.22 37.44-39.23L37.44-39.23L37.44-39.23Q42.62-35.33 42.62-26.56ZM29.44-28.93L29.44-28.93L29.44-28.93Q29.44-38.46 22.59-38.46L22.59-38.46L21.95-38.46L21.95-38.46Q21.63-38.46 21.31-38.40L21.31-38.40L14.72-4.03L14.72-4.03Q14.98-3.90 15.23-3.90L15.23-3.90L15.74-3.90L15.74-3.90Q18.11-3.90 20.58-5.38L20.58-5.38L20.58-5.38Q23.04-6.85 24.96-9.86L24.96-9.86L24.96-9.86Q29.44-16.83 29.44-28.93ZM61.25-3.52L61.25-3.52L61.25-3.52Q59.26 1.28 52.93 1.28L52.93 1.28L52.93 1.28Q49.66 1.28 47.62-0.96L47.62-0.96L47.62-0.96Q45.89-2.94 45.89-4.93L45.89-4.93L45.89-4.93Q45.89-10.11 48.26-20.22L48.26-20.22L50.62-32.64L63.62-33.92L59.71-13.70L59.71-13.70Q58.62-8.96 58.62-7.30L58.62-7.30L58.62-7.30Q58.62-3.65 61.25-3.52ZM51.78-41.54L51.78-41.54L51.78-41.54Q51.78-44.03 53.86-45.38L53.86-45.38L53.86-45.38Q55.94-46.72 58.94-46.72L58.94-46.72L58.94-46.72Q61.95-46.72 63.78-45.38L63.78-45.38L63.78-45.38Q65.60-44.03 65.60-41.54L65.60-41.54L65.60-41.54Q65.60-39.04 63.58-37.76L63.58-37.76L63.58-37.76Q61.57-36.48 58.56-36.48L58.56-36.48L58.56-36.48Q55.55-36.48 53.66-37.76L53.66-37.76L53.66-37.76Q51.78-39.04 51.78-41.54ZM93.76 1.28L93.76 1.28L93.76 1.28Q86.02 1.28 86.02-4.74L86.02-4.74L86.02-4.74Q86.08-6.40 86.59-9.22L86.59-9.22L87.74-15.10L87.74-15.10Q89.47-23.42 89.47-25.28L89.47-25.28L89.47-25.28Q89.47-28.99 87.30-28.99L87.30-28.99L87.30-28.99Q83.65-28.99 81.73-19.46L81.73-19.46L77.95 0L65.09 1.28L71.74-32.70L82.24-33.92L81.22-27.65L81.22-27.65Q84.22-33.92 93.44-33.92L93.44-33.92L93.44-33.92Q97.92-33.92 99.81-32.03L99.81-32.03L99.81-32.03Q101.70-30.14 101.70-25.92L101.70-25.92L101.70-25.92Q101.70-21.95 99.65-12.67L99.65-12.67L99.65-12.67Q98.69-8.51 98.69-6.94L98.69-6.94L98.69-6.94Q98.69-5.38 99.55-4.48L99.55-4.48L99.55-4.48Q100.42-3.58 101.70-3.46L101.70-3.46L101.70-3.46Q101.06-1.28 98.85 0L98.85 0L98.85 0Q96.64 1.28 93.76 1.28ZM132.74-10.82L132.74-10.82L132.74-10.82Q134.34-9.73 134.34-7.33L134.34-7.33L134.34-7.33Q134.34-4.93 133.12-3.39L133.12-3.39L133.12-3.39Q131.90-1.86 129.92-0.83L129.92-0.83L129.92-0.83Q125.82 1.28 121.41 1.28L121.41 1.28L121.41 1.28Q116.99 1.28 114.40 0.32L114.40 0.32L114.40 0.32Q111.81-0.64 110.08-2.43L110.08-2.43L110.08-2.43Q106.69-5.82 106.69-12.03L106.69-12.03L106.69-12.03Q106.69-21.70 111.94-27.58L111.94-27.58L111.94-27.58Q117.57-33.92 127.36-33.92L127.36-33.92L127.36-33.92Q133.44-33.92 136.45-31.36L136.45-31.36L136.45-31.36Q138.69-29.44 138.69-26.30L138.69-26.30L138.69-26.30Q138.69-15.04 119.23-15.04L119.23-15.04L119.23-15.04Q118.98-13.38 118.98-11.97L118.98-11.97L118.98-11.97Q118.98-9.02 120.29-7.90L120.29-7.90L120.29-7.90Q121.60-6.78 124.03-6.78L124.03-6.78L124.03-6.78Q126.46-6.78 129.06-7.90L129.06-7.90L129.06-7.90Q131.65-9.02 132.74-10.82ZM119.68-17.79L119.68-17.79L119.68-17.79Q124.22-17.79 126.85-20.61L126.85-20.61L126.85-20.61Q129.47-23.30 129.47-27.58L129.47-27.58L129.47-27.58Q129.47-29.06 128.93-29.86L128.93-29.86L128.93-29.86Q128.38-30.66 127.30-30.66L127.30-30.66L127.30-30.66Q126.21-30.66 125.28-30.24L125.28-30.24L125.28-30.24Q124.35-29.82 123.39-28.42L123.39-28.42L123.39-28.42Q121.02-25.22 119.68-17.79ZM160-22.46L160-22.46L160-22.46Q160.90-24.83 160.90-26.88L160.90-26.88L160.90-26.88Q160.90-30.66 157.82-30.66L157.82-30.66L157.82-30.66Q156.22-30.66 154.91-29.22L154.91-29.22L154.91-29.22Q153.60-27.78 153.60-25.98L153.60-25.98L153.60-25.98Q153.60-24.70 154.62-23.68L154.62-23.68L154.62-23.68Q156.10-22.27 159.87-19.97L159.87-19.97L159.87-19.97Q163.65-17.66 165.09-15.78L165.09-15.78L165.09-15.78Q166.53-13.89 166.53-11.30L166.53-11.30L166.53-11.30Q166.53-8.70 165.28-6.34L165.28-6.34L165.28-6.34Q164.03-3.97 161.79-2.30L161.79-2.30L161.79-2.30Q156.99 1.28 149.31 1.28L149.31 1.28L149.31 1.28Q145.15 1.28 141.95-0.90L141.95-0.90L141.95-0.90Q138.75-3.01 138.75-5.50L138.75-5.50L138.75-5.50Q138.75-8 140.58-9.47L140.58-9.47L140.58-9.47Q142.40-10.94 145.09-10.94L145.09-10.94L145.09-10.94Q147.78-10.94 149.44-9.92L149.44-9.92L149.44-9.92Q148.61-7.81 148.61-6.40L148.61-6.40L148.61-6.40Q148.61-2.18 152.19-2.18L152.19-2.18L152.19-2.18Q153.73-2.18 154.75-3.14L154.75-3.14L154.75-3.14Q155.78-4.10 155.78-5.76L155.78-5.76L155.78-5.76Q155.78-9.02 150.27-12.48L150.27-12.48L150.27-12.48Q145.79-15.42 144.77-16.58L144.77-16.58L144.77-16.58Q143.04-18.62 143.04-21.18L143.04-21.18L143.04-21.18Q143.04-23.74 144.26-26.18L144.26-26.18L144.26-26.18Q145.47-28.61 147.71-30.34L147.71-30.34L147.71-30.34Q152.38-33.92 160.51-33.92L160.51-33.92L160.51-33.92Q164.67-33.92 167.14-32.26L167.14-32.26L167.14-32.26Q169.60-30.59 169.60-27.78L169.60-27.78L169.60-27.78Q169.60-24.96 167.90-23.36L167.90-23.36L167.90-23.36Q166.21-21.76 163.14-21.76L163.14-21.76L163.14-21.76Q161.02-21.76 160-22.46ZM204.16-7.10L204.16-7.10L204.16-7.10Q204.16-4.29 207.04-3.46L207.04-3.46L207.04-3.46Q206.34-1.09 203.58 0.19L203.58 0.19L203.58 0.19Q201.28 1.28 198.75 1.28L198.75 1.28L198.75 1.28Q196.22 1.28 194.91 0.61L194.91 0.61L194.91 0.61Q193.60-0.06 192.90-1.15L192.90-1.15L192.90-1.15Q191.74-2.82 191.74-5.95L191.74-5.95L191.74-5.95Q191.74-7.81 192.77-12.93L192.77-12.93L193.66-17.79L193.66-17.79Q194.75-23.36 194.75-25.41L194.75-25.41L194.75-25.41Q194.75-28.99 192.77-28.99L192.77-28.99L192.77-28.99Q190.27-28.99 188.67-25.34L188.67-25.34L188.67-25.34Q188.03-23.94 187.58-21.82L187.58-21.82L183.23 0L170.37 1.28L179.39-44.80L192.26-46.08L191.74-43.52L191.74-43.52Q189.95-33.66 188.42-30.34L188.42-30.34L188.42-30.34Q192-33.92 198.59-33.92L198.59-33.92L198.59-33.92Q205.57-33.92 206.85-29.31L206.85-29.31L206.85-29.31Q207.30-27.84 207.30-26.56L207.30-26.56L207.30-26.56Q207.30-25.28 207.20-24.29L207.20-24.29L207.20-24.29Q207.10-23.30 206.78-21.50L206.78-21.50L205.95-16.90L204.48-9.66L204.48-9.66Q204.16-8.19 204.16-7.10ZM238.46 0L224.83 0L232.13-38.91L232.83-42.24L246.53-42.24L238.46 0ZM264.45-3.78L264.45-3.78L264.45-3.78Q262.72 1.28 256.06 1.28L256.06 1.28L256.06 1.28Q251.14 1.28 247.74-4.61L247.74-4.61L247.74-4.61Q244.29-10.50 243.65-20.10L243.65-20.10L243.65-20.10Q250.69-32.96 255.55-38.27L255.55-38.27L255.55-38.27Q260.22-43.33 265.09-43.33L265.09-43.33L265.09-43.33Q267.71-43.33 269.60-41.92L269.60-41.92L269.60-41.92Q271.49-40.51 271.94-38.27L271.94-38.27L271.94-38.27Q269.76-37.38 268.74-36.67L268.74-36.67L268.74-36.67Q266.18-34.75 262.72-30.46L262.72-30.46L256.90-23.49L256.90-23.49Q255.49-21.82 254.91-21.06L254.91-21.06L254.91-21.06Q255.87-15.68 258.75-10.37L258.75-10.37L258.75-10.37Q261.50-5.31 264.45-3.78ZM290.43-2.69L290.43-2.69L290.43-2.69Q287.36 1.28 279.74 1.28L279.74 1.28L279.74 1.28Q275.78 1.28 272.90-1.12L272.90-1.12L272.90-1.12Q270.02-3.52 270.02-6.98L270.02-6.98L270.02-6.98Q270.02-8.90 270.21-9.86L270.21-9.86L274.50-32.64L287.49-33.92L282.82-9.22L282.82-9.22Q282.56-7.81 282.56-6.98L282.56-6.98L282.56-6.98Q282.56-3.26 284.80-3.26L284.80-3.26L284.80-3.26Q287.30-3.26 289.09-6.66L289.09-6.66L289.09-6.66Q289.66-7.74 289.92-9.15L289.92-9.15L294.46-32.64L307.07-33.92L302.34-8.96L302.34-8.96Q302.14-8 302.14-6.98L302.14-6.98L302.14-6.98Q302.14-5.95 302.72-4.83L302.72-4.83L302.72-4.83Q303.30-3.71 305.15-3.46L305.15-3.46L305.15-3.46Q304.77-1.92 303.42-0.90L303.42-0.90L303.42-0.90Q300.61 1.28 297.57 1.28L297.57 1.28L297.57 1.28Q294.53 1.28 292.74 0.19L292.74 0.19L292.74 0.19Q290.94-0.90 290.43-2.69ZM356.61 1.28L356.61 1.28L356.61 1.28Q348.86 1.28 348.86-4.74L348.86-4.74L348.86-4.74Q348.86-7.36 349.98-12.45L349.98-12.45L349.98-12.45Q351.10-17.54 351.49-19.58L351.49-19.58L351.49-19.58Q352.38-24.26 352.38-25.73L352.38-25.73L352.38-25.73Q352.38-28.99 349.95-28.99L349.95-28.99L349.95-28.99Q348.35-28.99 346.82-26.78L346.82-26.78L346.82-26.78Q345.28-24.58 344.58-20.16L344.58-20.16L340.61 0L328.13 1.28L331.58-16.13L331.58-16.13Q332.16-19.01 332.67-22.27L332.67-22.27L332.67-22.27Q333.18-25.54 333.18-26.05L333.18-26.05L333.18-26.05Q333.18-28.99 331.01-28.99L331.01-28.99L331.01-28.99Q329.54-28.99 327.94-26.82L327.94-26.82L327.94-26.82Q326.34-24.64 325.44-20.16L325.44-20.16L321.54 0L308.93 1.28L315.65-32.64L326.08-33.92L324.99-27.46L324.99-27.46Q326.66-30.91 329.73-32.42L329.73-32.42L329.73-32.42Q332.80-33.92 337.60-33.92L337.60-33.92L337.60-33.92Q340.35-33.92 342.14-32.58L342.14-32.58L342.14-32.58Q343.94-31.23 344.51-29.06L344.51-29.06L344.51-29.06Q345.60-31.30 348.38-32.61L348.38-32.61L348.38-32.61Q351.17-33.92 354.59-33.92L354.59-33.92L354.59-33.92Q358.02-33.92 359.71-33.18L359.71-33.18L359.71-33.18Q361.41-32.45 362.43-31.23L362.43-31.23L362.43-31.23Q364.16-28.99 364.16-24.90L364.16-24.90L364.16-24.90Q364.16-20.86 362.43-12.48L362.43-12.48L362.43-12.48Q361.54-8.38 361.54-6.88L361.54-6.88L361.54-6.88Q361.54-5.38 362.40-4.48L362.40-4.48L362.40-4.48Q363.26-3.58 364.54-3.46L364.54-3.46L364.54-3.46Q363.90-1.28 361.70 0L361.70 0L361.70 0Q359.49 1.28 356.61 1.28ZM372.26-1.92L372.26-1.92L372.26-1.92Q370.75-3.58 370.08-6.21L370.08-6.21L370.08-6.21Q369.41-8.83 369.41-13.12L369.41-13.12L369.41-13.12Q369.41-17.41 370.88-21.31L370.88-21.31L370.88-21.31Q372.35-25.22 375.04-28.03L375.04-28.03L375.04-28.03Q380.54-33.92 389.63-33.92L389.63-33.92L389.63-33.92Q392.90-33.92 395.26-32.83L395.26-32.83L406.21-33.92L401.47-8.96L401.47-8.96Q401.28-8.19 401.28-6.78L401.28-6.78L401.28-6.78Q401.28-5.38 402.14-4.48L402.14-4.48L402.14-4.48Q403.01-3.58 404.29-3.46L404.29-3.46L404.29-3.46Q403.65-1.28 401.31 0L401.31 0L401.31 0Q398.98 1.28 396.35 1.28L396.35 1.28L396.35 1.28Q393.73 1.28 391.97 0.29L391.97 0.29L391.97 0.29Q390.21-0.70 389.70-2.37L389.70-2.37L389.70-2.37Q388.67-0.77 386.50 0.26L386.50 0.26L386.50 0.26Q384.32 1.28 381.41 1.28L381.41 1.28L381.41 1.28Q378.50 1.28 376.13 0.51L376.13 0.51L376.13 0.51Q373.76-0.26 372.26-1.92ZM385.76-27.90L385.76-27.90L385.76-27.90Q385.02-26.75 384.38-24.80L384.38-24.80L384.38-24.80Q383.74-22.85 382.69-17.63L382.69-17.63L382.69-17.63Q381.63-12.42 381.63-8.70L381.63-8.70L381.63-8.70Q381.63-4.99 382.21-3.90L382.21-3.90L382.21-3.90Q382.78-2.82 383.81-2.82L383.81-2.82L383.81-2.82Q385.86-2.82 387.36-4.77L387.36-4.77L387.36-4.77Q388.86-6.72 389.44-10.18L389.44-10.18L392.83-28.93L392.83-28.93Q391.49-30.08 389.92-30.08L389.92-30.08L389.92-30.08Q388.35-30.08 387.42-29.57L387.42-29.57L387.42-29.57Q386.50-29.06 385.76-27.90ZM429.70-17.98L429.70-17.98L429.70-17.98Q432-22.08 432-26.24L432-26.24L432-26.24Q432-28.99 430.02-28.99L430.02-28.99L430.02-28.99Q428.48-28.99 426.88-26.37L426.88-26.37L426.88-26.37Q425.22-23.74 424.70-20.35L424.70-20.35L421.38 0L408.13 1.28L414.66-32.64L425.22-33.92L424.06-27.46L424.06-27.46Q427.20-33.92 434.24-33.92L434.24-33.92L434.24-33.92Q437.95-33.92 439.97-32L439.97-32L439.97-32Q441.98-30.08 441.98-26.14L441.98-26.14L441.98-26.14Q441.98-22.21 439.39-19.71L439.39-19.71L439.39-19.71Q436.80-17.22 432.38-17.22L432.38-17.22L432.38-17.22Q430.46-17.22 429.70-17.98Z" fill="url(#editing-shadow-gradient2)"></path></g></g></g><style>text {
  font-size: 64px;
  font-family: Arial Black;
  dominant-baseline: central;
  text-anchor: middle;
}</style></svg>